#!OML:ASF H:\Pregnant\Project 1\Capture day 1\Session 1\femalepreg.ASF
:FULLY-SPECIFIED
:DEGREES
442
root 3.54034 15.534 11.586 35.9554 -13.3637 0.0751853
lowerback -2.92295 -1.10766 -5.57211
upperback -7.66692 -1.52609 1.18135
thorax -6.20004 -0.410103 4.39618
lowerneck -30.5351 -5.19848 -1.97257
upperneck 10.1289 -7.4485 6.88707
head 8.32023 -2.82672 1.54263
rclavicle 9.74045e-015 -1.21259e-014
rhumerus -32.8228 3.79316 -74.8038
rradius 39.5098
rwrist -10.9608
rhand -19.3966 -16.3991
rfingers 7.12502
rthumb 6.92229 -46.2659
lclavicle 9.74045e-015 -1.21259e-014
lhumerus -40.8895 -9.42401 79.5854
lradius 38.7057
lwrist 33.9015
lhand -20.8378 -1.24267
lfingers 7.12502
lthumb 5.53098 28.6651
rfemur -61.6841 1.47941 2.44868
rtibia 37.9742
rfoot -4.11879 -20.5772
rtoes -16.2787
lfemur -47.8138 7.93327 -13.2921
ltibia 21.2268
lfoot -1.11199 14.6649
ltoes -22.4919
443
root 3.53173 15.5711 11.6281 35.4819 -13.2672 0.107134
lowerback -3.2831 -1.17879 -5.52649
upperback -7.65639 -1.599 1.20463
thorax -5.97384 -0.456664 4.38674
lowerneck -30.1616 -5.46163 -2.2311
upperneck 10.7378 -7.77388 7.02563
head 8.50866 -2.96466 1.57793
rclavicle -6.5102e-015 1.19271e-014
rhumerus -32.9974 3.44989 -74.5811
rradius 38.8063
rwrist -10.9296
rhand -18.742 -16.6136
rfingers 7.12502
rthumb 7.55417 -46.4587
lclavicle -6.5102e-015 1.19271e-014
lhumerus -41.2234 -9.45557 79.6845
lradius 39.2805
lwrist 34.3398
lhand -20.9777 -1.43481
lfingers 7.12502
lthumb 5.39583 28.4765
rfemur -60.4923 2.21568 2.01861
rtibia 37.2209
rfoot -4.14998 -21.3625
rtoes -15.8256
lfemur -46.0358 7.14503 -12.7895
ltibia 19.4197
lfoot -0.519835 15.3853
ltoes -22.3001
444
root 3.52319 15.6055 11.6695 35.0259 -13.1644 0.140439
lowerback -3.65151 -1.24339 -5.46989
upperback -7.65493 -1.66365 1.21913
thorax -5.75468 -0.499503 4.36104
lowerneck -29.7458 -5.749 -2.50191
upperneck 11.3117 -8.12841 7.15724
head 8.68107 -3.12004 1.60866
rclavicle 3.47873e-014 -1.66979e-014
rhumerus -33.2018 3.12842 -74.364
rradius 38.1506
rwrist -10.8899
rhand -18.1343 -16.8108
rfingers 7.12502
rthumb 8.14074 -46.6339
lclavicle 3.47873e-014 -1.66979e-014
lhumerus -41.543 -9.51307 79.7828
lradius 39.8616
lwrist 34.7831
lhand -21.0493 -1.47894
lfingers 7.12502
lthumb 5.32677 28.4341
rfemur -59.3448 2.96963 1.5875
rtibia 36.4962
rfoot -4.21159 -22.1697
rtoes -15.3297
lfemur -44.251 6.33176 -12.296
ltibia 17.5353
lfoot 0.106591 16.1187
ltoes -22.0496
445
root 3.5143 15.6376 11.7096 34.6035 -13.063 0.173382
lowerback -4.0432 -1.31461 -5.4278
upperback -7.65464 -1.73615 1.23936
thorax -5.52305 -0.545597 4.34832
lowerneck -29.3528 -6.03578 -2.77086
upperneck 11.8797 -8.48431 7.27485
head 8.85524 -3.27758 1.63375
rclavicle 5.06901e-014 -4.1546e-014
rhumerus -33.3933 2.86129 -74.163
rradius 37.5385
rwrist -10.8369
rhand -17.5902 -16.9716
rfingers 7.12502
rthumb 8.66584 -46.7737
lclavicle 5.06901e-014 -4.1546e-014
lhumerus -41.8336 -9.54071 79.8653
lradius 40.4538
lwrist 35.2228
lhand -21.0873 -1.41048
lfingers 7.12502
lthumb 5.29006 28.5035
rfemur -58.2646 3.75938 1.14019
rtibia 35.801
rfoot -4.30772 -23.015
rtoes -14.7553
lfemur -42.4556 5.50806 -11.8151
ltibia 15.5371
lfoot 0.788459 16.8599
ltoes -21.7584
446
root 3.50482 15.6679 11.7493 34.1878 -12.9639 0.205896
lowerback -4.4378 -1.38683 -5.39791
upperback -7.65804 -1.81008 1.26299
thorax -5.29408 -0.591404 4.34528
lowerneck -28.94 -6.32395 -3.07392
upperneck 12.4343 -8.83716 7.41117
head 9.0253 -3.43447 1.67142
rclavicle -1.0138e-014 1.41137e-014
rhumerus -33.5993 2.63917 -73.9721
rradius 36.9722
rwrist -10.7626
rhand -17.0971 -17.0912
rfingers 7.12502
rthumb 9.14167 -46.873
lclavicle -1.0138e-014 1.41137e-014
lhumerus -42.1156 -9.5569 79.9431
lradius 41.0551
lwrist 35.6506
lhand -21.041 -1.06144
lfingers 7.12502
lthumb 5.33472 28.8514
rfemur -57.2179 4.59581 0.679792
rtibia 35.1338
rfoot -4.45015 -23.8963
rtoes -14.0774
lfemur -40.585 4.67352 -11.3451
ltibia 13.3717
lfoot 1.54071 17.6042
ltoes -21.41
447
root 3.49515 15.6962 11.7883 33.7764 -12.8706 0.237146
lowerback -4.82266 -1.46261 -5.38401
upperback -7.66742 -1.88926 1.29718
thorax -5.07658 -0.638137 4.36193
lowerneck -28.507 -6.60274 -3.41363
upperneck 12.9756 -9.17121 7.56196
head 9.19042 -3.58426 1.7234
rclavicle 3.926e-015 -1.39149e-015
rhumerus -33.8171 2.48691 -73.7914
rradius 36.4511
rwrist -10.6773
rhand -16.6661 -17.175
rfingers 7.12502
rthumb 9.55753 -46.9383
lclavicle 3.926e-015 -1.39149e-015
lhumerus -42.3979 -9.54211 80.0232
lradius 41.6616
lwrist 36.0582
lhand -21.0241 -0.709573
lfingers 7.12502
lthumb 5.35108 29.2029
rfemur -56.2066 5.47604 0.209815
rtibia 34.4961
rfoot -4.63785 -24.8013
rtoes -13.2889
lfemur -38.5842 3.82468 -10.884
ltibia 10.942
lfoot 2.41279 18.3553
ltoes -20.9996
448
root 3.48615 15.722 11.8268 33.3652 -12.7891 0.265791
lowerback -5.19702 -1.53649 -5.37004
upperback -7.67506 -1.96662 1.33162
thorax -4.86392 -0.683821 4.37828
lowerneck -28.0703 -6.86819 -3.76354
upperneck 13.5062 -9.48869 7.7145
head 9.35232 -3.72777 1.78072
rclavicle -3.26504e-014 4.57205e-015
rhumerus -34.0339 2.38587 -73.6283
rradius 35.9703
rwrist -10.5745
rhand -16.2966 -17.2232
rfingers 7.12502
rthumb 9.91402 -46.9698
lclavicle -3.26504e-014 4.57205e-015
lhumerus -42.6678 -9.50471 80.0991
lradius 42.2708
lwrist 36.4407
lhand -21.0869 -0.491537
lfingers 7.12502
lthumb 5.29043 29.4224
rfemur -55.2299 6.38662 -0.260495
rtibia 33.8881
rfoot -4.87656 -25.6974
rtoes -12.3557
lfemur -36.356 3.65389 -10.9457
ltibia 8.0228
lfoot 3.4411 18.2608
ltoes -20.5376
